# xmcd
#
# Track frame offsets:
#	150
#	26537
#	47740
#	71185
#	93310
#	116455
#	143172
#	166505
#	189072
#	219652
#	240792
#	263255
#	282200
#	307197
#	328060
#
# Disc length: 4657 seconds
#
# Revision: 1
# Processed by: cddbd v1.5.1PL0 Copyright (c) Steve Scherf et al.
# Submitted via: CDex 1.50Beta5
#
DISCID=c5122f0f
DTITLE=Various Artist - Ballad 7
DYEAR=1900
DGENRE=Pop
TTITLE0=永井真理子/ZUTTO
TTITLE1=岡村孝子/夢おあきらめないで
TTITLE2=BEGIN/恋しくて
TTITLE3=小田和正/ラブ・スト-リ-は突然に
TTITLE4=SING LIKE TALKING/With You
TTITLE5=遠藤京子/泣きたい日もある
TTITLE6=岡村孝子/あなたと生きた季節
TTITLE7=小林朋子/恋におちて
TTITLE8=森川由加里/本当は泣きたいのに
TTITLE9=BEGIN/声のおまもりください
TTITLE10=斉藤和義/de`ja vu
TTITLE11=小田和正/あなたお見つめて
TTITLE12=SING LIKE TALKING/止まらぬ想い
TTITLE13=永井真理子/Keep On "Keeping On"
TTITLE14=辛島美登里/サイレント・イブ
EXTD=
EXTT0=
EXTT1=
EXTT2=
EXTT3=
EXTT4=
EXTT5=
EXTT6=
EXTT7=
EXTT8=
EXTT9=
EXTT10=
EXTT11=
EXTT12=
EXTT13=
EXTT14=
PLAYORDER=
